<svg width="921" height="250" viewBox="0 0 921 250" fill="none" xmlns="http://www.w3.org/2000/svg">
<path d="M340.079 156.199C324.087 156.723 311.061 143.347 311.061 127.355V125.96C311.061 109.619 322.633 96.2434 338.742 96.2434C345.429 96.2434 351.07 98.2206 356.362 101.71C360.549 104.443 366.19 103.454 369.505 99.6744C373.576 94.964 372.645 87.6367 367.411 84.2639C360.142 79.6698 351.187 76.8784 338.858 76.8784C309.549 76.8784 289.079 99.0929 289.079 126.25V126.541C289.079 153.931 309.956 175.622 338.044 175.622C356.478 175.622 367.353 169.051 377.181 158.583L363.806 145.092C356.653 151.605 350.198 155.85 340.079 156.199Z" fill="#02C9D7"/>
<path d="M426.611 99.4998C403.815 99.4998 386.893 116.539 386.893 137.532V137.823C386.893 158.816 403.699 175.622 426.32 175.622C449.116 175.622 466.039 158.583 466.039 137.59V137.241C466.039 116.248 449.233 99.4998 426.611 99.4998ZM445.569 137.823C445.569 148.581 438.474 157.711 426.611 157.711C415.155 157.711 407.362 148.29 407.362 137.532V137.241C407.362 126.483 414.457 117.353 426.32 117.353C437.776 117.353 445.569 126.774 445.569 137.532V137.823Z" fill="#02C9D7"/>
<path d="M553.443 78.5066C547.627 78.5066 542.917 83.217 542.917 89.0323V116.306H504.187V88.9742C504.187 83.1589 499.477 78.4485 493.661 78.4485C487.846 78.4485 483.136 83.1589 483.136 88.9742V173.936H504.129V135.613H542.859V173.936H563.852V88.9742C563.968 83.1589 559.258 78.5066 553.443 78.5066Z" fill="#02C9D7"/>
<path d="M617.295 99.4998C596.011 99.4998 581.124 116.713 581.124 137.532V137.823C581.124 160.212 597.348 175.622 619.33 175.622C632.589 175.622 642.359 170.446 649.221 161.956L637.358 151.43C631.6 156.722 626.599 158.932 619.621 158.932C610.375 158.932 603.803 154.047 601.768 144.627H652.652C652.768 142.707 652.943 140.788 652.943 139.16C652.884 118.458 641.719 99.4998 617.295 99.4998ZM601.477 131.658C603.105 122.238 608.688 116.132 617.295 116.132C626.018 116.132 631.484 122.412 632.705 131.658H601.477Z" fill="#02C9D7"/>
<path d="M767.388 74.3777C761.689 74.3777 757.037 79.0299 757.037 84.7289V173.936H777.797V84.7289C777.797 79.0299 773.145 74.3777 767.388 74.3777Z" fill="#02C9D7"/>
<path d="M821.412 82.1702H800.652V100.837H791.929V118.574H800.652V153.233C800.652 170.156 809.258 175.215 821.936 175.215C828.914 175.215 833.915 173.587 838.277 170.97V154.338C835.253 155.966 831.88 156.955 828.042 156.955C823.39 156.955 821.354 154.629 821.354 149.86V118.632H838.567V100.895H821.354V82.1702H821.412Z" fill="#02C9D7"/>
<path d="M896.023 99.4998C885.497 99.4998 879.391 105.082 874.622 111.247V84.787C874.622 79.088 869.97 74.4358 864.271 74.4358C858.572 74.4358 853.92 79.088 853.92 84.787V173.994H874.681V133.17C874.681 123.343 879.74 118.283 887.649 118.283C895.558 118.283 900.21 123.343 900.21 133.17V173.936H920.97V126.599C920.854 109.851 911.724 99.4998 896.023 99.4998Z" fill="#02C9D7"/>
<path d="M732.961 98.9766C728.949 98.9766 725.518 101.245 723.773 104.559C717.958 101.303 711.096 99.4418 703.594 99.4418C680.798 99.4418 663.875 116.481 663.875 137.474V137.765C663.875 158.758 680.682 175.564 703.303 175.564C710.398 175.564 716.911 173.936 722.552 171.028V173.936H743.313V109.328C743.313 103.629 738.718 98.9766 732.961 98.9766ZM703.652 157.711C692.196 157.711 684.404 148.29 684.404 137.532V137.241C684.404 126.483 691.498 117.353 703.361 117.353C714.818 117.353 722.61 126.774 722.61 137.532V137.823C722.61 148.581 715.515 157.711 703.652 157.711Z" fill="#02C9D7"/>
<path d="M124.971 156.199C119.679 156.199 115.376 151.896 115.376 146.604C115.376 141.312 119.679 137.009 124.971 137.009C140.672 137.009 153.408 124.273 153.408 108.572V47.6274C153.408 31.926 140.672 19.1905 124.971 19.1905C109.328 19.1905 96.5924 31.926 96.5343 47.5692L96.6506 59.1998C96.7087 64.4917 92.4635 68.8532 87.1716 68.9114C81.8797 68.9695 77.5182 64.7244 77.4601 59.4324L77.3438 47.6274C77.3438 21.3422 98.6859 0 124.971 0C151.256 0 172.598 21.3422 172.598 47.6274V108.63C172.598 134.857 151.256 156.199 124.971 156.199Z" fill="#02C9D7"/>
<path d="M47.6274 172.598C21.3422 172.598 0 151.256 0 124.971C0 98.6857 21.3422 77.3435 47.6274 77.3435H85.7758C91.0677 77.3435 95.371 81.6468 95.371 86.9388C95.371 92.2307 91.0677 96.534 85.7758 96.534H47.6274C31.926 96.534 19.1905 109.27 19.1905 124.971C19.1905 140.672 31.926 153.408 47.6274 153.408C52.9193 153.408 57.2226 157.711 57.2226 163.003C57.2226 168.295 52.9193 172.598 47.6274 172.598Z" fill="#FB9678"/>
<path d="M202.373 172.598H164.981C159.689 172.598 155.385 168.295 155.385 163.003C155.385 157.711 159.689 153.408 164.981 153.408H202.373C218.074 153.408 230.81 140.672 230.81 124.971C230.81 109.27 218.074 96.534 202.373 96.534C197.081 96.534 192.778 92.2307 192.778 86.9388C192.778 81.6468 197.081 77.3435 202.373 77.3435C228.658 77.3435 250 98.6857 250 124.971C250 151.256 228.6 172.598 202.373 172.598Z" fill="#FB9678"/>
<path d="M124.971 250C98.6859 250 77.3438 228.658 77.3438 202.373V141.37C77.3438 115.085 98.6859 93.7427 124.971 93.7427C130.263 93.7427 134.566 98.046 134.566 103.338C134.566 108.63 130.263 112.933 124.971 112.933C109.27 112.933 96.5343 125.669 96.5343 141.37V202.373C96.5343 218.074 109.27 230.809 124.971 230.809C140.614 230.809 153.35 218.074 153.408 202.431L153.292 190.8C153.233 185.508 157.479 181.147 162.771 181.089C162.829 181.089 162.829 181.089 162.887 181.089C168.121 181.089 172.424 185.334 172.482 190.568L172.598 202.373C172.598 228.6 151.256 250 124.971 250Z" fill="#02C9D7"/>
</svg>
