<svg width="250" height="250" viewBox="0 0 250 250" fill="none" xmlns="http://www.w3.org/2000/svg">
<path d="M124.971 156.199C119.679 156.199 115.376 151.896 115.376 146.604C115.376 141.312 119.679 137.009 124.971 137.009C140.672 137.009 153.408 124.273 153.408 108.572V47.6274C153.408 31.926 140.672 19.1905 124.971 19.1905C109.328 19.1905 96.5924 31.926 96.5343 47.5692L96.6506 59.1998C96.7087 64.4917 92.4635 68.8532 87.1716 68.9114C81.8797 68.9695 77.5182 64.7244 77.4601 59.4324L77.3438 47.6274C77.3438 21.3422 98.6859 0 124.971 0C151.256 0 172.598 21.3422 172.598 47.6274V108.63C172.598 134.857 151.256 156.199 124.971 156.199Z" fill="#02C9D7"/>
<path d="M47.6274 172.598C21.3422 172.598 0 151.256 0 124.971C0 98.6857 21.3422 77.3435 47.6274 77.3435H85.7758C91.0677 77.3435 95.371 81.6468 95.371 86.9388C95.371 92.2307 91.0677 96.534 85.7758 96.534H47.6274C31.926 96.534 19.1905 109.27 19.1905 124.971C19.1905 140.672 31.926 153.408 47.6274 153.408C52.9193 153.408 57.2226 157.711 57.2226 163.003C57.2226 168.295 52.9193 172.598 47.6274 172.598Z" fill="#FB9678"/>
<path d="M202.373 172.598H164.981C159.689 172.598 155.385 168.295 155.385 163.003C155.385 157.711 159.689 153.408 164.981 153.408H202.373C218.074 153.408 230.81 140.672 230.81 124.971C230.81 109.27 218.074 96.534 202.373 96.534C197.081 96.534 192.778 92.2307 192.778 86.9388C192.778 81.6468 197.081 77.3435 202.373 77.3435C228.658 77.3435 250 98.6857 250 124.971C250 151.256 228.6 172.598 202.373 172.598Z" fill="#FB9678"/>
<path d="M124.971 250C98.6859 250 77.3438 228.658 77.3438 202.373V141.37C77.3438 115.085 98.6859 93.7427 124.971 93.7427C130.263 93.7427 134.566 98.046 134.566 103.338C134.566 108.63 130.263 112.933 124.971 112.933C109.27 112.933 96.5343 125.669 96.5343 141.37V202.373C96.5343 218.074 109.27 230.809 124.971 230.809C140.614 230.809 153.35 218.074 153.408 202.431L153.292 190.8C153.233 185.508 157.479 181.147 162.771 181.089C162.829 181.089 162.829 181.089 162.887 181.089C168.121 181.089 172.424 185.334 172.482 190.568L172.598 202.373C172.598 228.6 151.256 250 124.971 250Z" fill="#02C9D7"/>
</svg>
